<svg id="Layer_1" data-name="Layer 1" xmlns="http://www.w3.org/2000/svg" viewBox="0 0 256 256"><defs><style>.cls-1{fill:#276749;}</style></defs><path class="cls-1" d="M231.83,25.17H24.17c-5.66,0-9.43,3.78-9.43,9.44V147.88c0,5.66,3.77,9.44,9.43,9.44H231.83c5.66,0,9.43-3.78,9.43-9.44V34.61C241.26,29,237.49,25.17,231.83,25.17Zm-193.5,85c-1.89,0-3.77,0-4.72.95V71.42c1,1,2.83,1,4.72,1a23.37,23.37,0,0,0,23.6-23.6c0-1.89,0-3.77-1-4.72H194.07v4.72a23.37,23.37,0,0,0,23.6,23.6c1.89,0,3.77,0,4.72-1v38.7c-.95,0-2.83-.94-4.72-.94a23.37,23.37,0,0,0-23.6,23.6c0,1.88,0,3.77,1,4.71H61c1,0,1-1.88,1-3.77A23.37,23.37,0,0,0,38.33,110.12ZM99.68,91.25a28.32,28.32,0,0,1,56.64,0,28.32,28.32,0,0,1-56.64,0ZM33.61,185.63v-9.44H222.39v9.44c0,5.67-3.78,9.44-9.44,9.44H43.05C37.39,195.07,33.61,191.3,33.61,185.63Zm22.66,37.76V214H197.85v9.44c0,5.66-3.78,9.44-9.44,9.44H65.7C60,232.83,56.27,229.05,56.27,223.39Z"/></svg>